<svg width="90" height="101" viewBox="0 0 90 101" fill="none" xmlns="http://www.w3.org/2000/svg">
<path fill-rule="evenodd" clip-rule="evenodd" d="M75.2027 93.51L69.7027 84.9C65.7913 88.0254 61.3025 90.3496 56.4927 91.74L52.7627 100.68C50.2606 98.4536 47.9213 96.0508 45.7627 93.49C14.5927 95.65 -19.2373 60.04 13.1527 9.3L19.7627 17.86C24.0608 14.9232 28.9302 12.9263 34.0527 12L38.5427 0C43.5427 4 47.5427 7 50.5427 10.89C76.9027 10.92 108.493 49.57 75.2027 93.51ZM53.5427 76.72C62.0327 76.72 61.9827 63.72 53.6827 63.72C44.6027 63.74 45.0127 76.72 53.5427 76.72ZM68.3027 30.22C65.3927 30.05 57.6027 30.31 52.1027 32.37C52.5327 22.16 45.6627 13.3 41.0127 10.19L37.9127 18.09C30.9079 18.8272 24.3676 21.9439 19.3827 26.92C17.2527 24.59 13.6927 20.46 13.6927 20.46C-7.24727 56.8 17.6927 88.46 41.6327 86.93C38.5227 80.93 36.7527 74.73 37.0427 70.4C31.7213 70.9036 26.3642 70.9036 21.0427 70.4C17.2527 69.91 15.7027 61.56 20.5027 60.9C47.7627 57.12 43.1127 45.17 68.9327 39.35C73.6627 38.3 72.1127 30.45 68.3027 30.22ZM69.8827 62.42C63.4827 62.42 63.7727 71.55 69.7827 71.55C75.7927 71.55 75.7627 62.42 69.8827 62.42ZM37.5827 41.72C28.8227 41.72 28.7627 28 37.7627 28C46.7627 28 47.1827 41.72 37.5827 41.72ZM21.0827 43.6C14.9127 43.6 14.8727 33.94 21.1927 33.94C27.5127 33.94 27.8427 43.6 21.0827 43.6Z" fill="black"/>
</svg>
