<svg width="20" height="16" viewBox="0 0 20 16" fill="none" xmlns="http://www.w3.org/2000/svg">
<path fill-rule="evenodd" clip-rule="evenodd" d="M18.0636 8.34945L16.9972 15.8605L3.07102 16L1.87673 8.68423L0.0277247 7.03609L0 5.7356L20 5.7077L19.8763 7.34297L18.0636 8.34945ZM7.19983 9.57053C7.19983 8.19923 5.42333 8.20567 5.43186 9.48469C5.43186 9.87741 5.45532 13.1458 5.45959 13.5063C5.45959 14.7424 7.21049 14.7038 7.20196 13.4119C7.19983 13.0642 7.2041 10.0255 7.19983 9.57053ZM10.9085 9.57053C10.9085 8.19923 9.13201 8.20567 9.14054 9.48469C9.14054 9.87741 9.164 13.1458 9.16827 13.5063C9.16827 14.7424 10.9192 14.7038 10.9106 13.4119C10.9085 13.0642 10.9128 10.0255 10.9085 9.57053ZM14.6172 9.57053C14.6172 8.19923 12.8407 8.20567 12.8492 9.48469C12.8492 9.87741 12.8727 13.1458 12.8769 13.5063C12.8769 14.7424 14.6279 14.7038 14.6193 13.4119C14.6172 13.0642 14.6215 10.0255 14.6172 9.57053ZM10.8488 1.77405C9.84218 0.771864 11.1687 -0.6209 12.1412 0.342661L16.4065 4.58963L13.634 4.58534L10.8488 1.77405ZM6.238 4.59607H3.49541C4.65344 3.42863 7.47707 0.593744 7.70314 0.361974C8.69482 -0.650945 10.0832 0.683877 9.13414 1.64958L6.238 4.59607Z" fill="black"/>
</svg>
