<svg width="108" height="22" viewBox="0 0 108 22" fill="none" xmlns="http://www.w3.org/2000/svg">
<path d="M7.33137e-06 -1.33514e-05H4.36801L8.11201 9.31199H8.16001L11.904 -1.33514e-05H16.08V16.8H13.2V3.23999H13.152L9.48001 12.36H6.60001L2.92801 3.23999H2.88001V16.8H7.33137e-06V-1.33514e-05ZM22.7417 16.8L17.8697 4.79999H20.8937L24.1817 13.344H24.2297L27.2777 4.79999H30.1097L23.7497 21.6H20.9177L22.7417 16.8ZM31.7784 4.79999H33.9384L34.1784 6.23999H34.2264C35.2024 5.11999 36.4824 4.55999 38.0664 4.55999C38.8184 4.55999 39.4984 4.68799 40.1064 4.94399C40.7304 5.18399 41.2584 5.55199 41.6904 6.04799C42.1224 6.54399 42.4584 7.16799 42.6984 7.91999C42.9384 8.65599 43.0584 9.52799 43.0584 10.536V11.064C43.0584 13.048 42.5944 14.544 41.6664 15.552C40.7544 16.544 39.5544 17.04 38.0664 17.04C37.3784 17.04 36.7224 16.912 36.0984 16.656C35.4904 16.4 34.9944 16.048 34.6104 15.6H34.5624V21.6H31.7784V4.79999ZM37.3464 14.496C38.2104 14.496 38.8904 14.224 39.3864 13.68C39.8824 13.136 40.1304 12.264 40.1304 11.064V10.536C40.1304 9.36799 39.8744 8.50399 39.3624 7.94399C38.8664 7.38399 38.1944 7.10399 37.3464 7.10399C36.4824 7.10399 35.8024 7.38399 35.3064 7.94399C34.8104 8.48799 34.5624 9.35999 34.5624 10.56V11.088C34.5624 12.24 34.8104 13.096 35.3064 13.656C35.8184 14.216 36.4984 14.496 37.3464 14.496ZM45.4659 4.79999H48.2499V9.40799H53.4819V4.79999H56.2659V16.8H53.4819V11.952H48.2499V16.8H45.4659V4.79999ZM64.4278 17.04C62.6198 17.04 61.2038 16.528 60.1798 15.504C59.1718 14.464 58.6678 12.984 58.6678 11.064V10.536C58.6678 9.59199 58.7958 8.75199 59.0518 8.01599C59.3238 7.27999 59.7078 6.65599 60.2038 6.14399C60.7158 5.63199 61.3238 5.23999 62.0278 4.96799C62.7318 4.69599 63.5318 4.55999 64.4278 4.55999C66.2358 4.55999 67.6438 5.07999 68.6518 6.11999C69.6758 7.14399 70.1878 8.61599 70.1878 10.536V11.064C70.1878 12.008 70.0518 12.848 69.7798 13.584C69.5238 14.32 69.1398 14.944 68.6278 15.456C68.1318 15.968 67.5238 16.36 66.8038 16.632C66.0998 16.904 65.3078 17.04 64.4278 17.04ZM64.4278 14.496C65.3078 14.496 65.9958 14.224 66.4918 13.68C67.0038 13.12 67.2598 12.248 67.2598 11.064V10.536C67.2598 9.38399 67.0038 8.52799 66.4918 7.96799C65.9798 7.39199 65.2918 7.10399 64.4278 7.10399C63.5478 7.10399 62.8518 7.38399 62.3398 7.94399C61.8438 8.48799 61.5958 9.35199 61.5958 10.536V11.064C61.5958 12.216 61.8518 13.08 62.3638 13.656C62.8758 14.216 63.5638 14.496 64.4278 14.496ZM72.5831 4.79999H74.7431L74.9831 6.23999H75.0311C76.0071 5.11999 77.2871 4.55999 78.8711 4.55999C79.6231 4.55999 80.3031 4.68799 80.9111 4.94399C81.5351 5.18399 82.0631 5.55199 82.4951 6.04799C82.9271 6.54399 83.2631 7.16799 83.5031 7.91999C83.7431 8.65599 83.8631 9.52799 83.8631 10.536V11.064C83.8631 13.048 83.3991 14.544 82.4711 15.552C81.5591 16.544 80.3591 17.04 78.8711 17.04C78.1831 17.04 77.5271 16.912 76.9031 16.656C76.2951 16.4 75.7991 16.048 75.4151 15.6H75.3671V21.6H72.5831V4.79999ZM78.1511 14.496C79.0151 14.496 79.6951 14.224 80.1911 13.68C80.6871 13.136 80.9351 12.264 80.9351 11.064V10.536C80.9351 9.36799 80.6791 8.50399 80.1671 7.94399C79.6711 7.38399 78.9991 7.10399 78.1511 7.10399C77.2871 7.10399 76.6071 7.38399 76.1111 7.94399C75.6151 8.48799 75.3671 9.35999 75.3671 10.56V11.088C75.3671 12.24 75.6151 13.096 76.1111 13.656C76.6231 14.216 77.3031 14.496 78.1511 14.496ZM86.2706 4.79999H89.0546V9.28799H90.2546L93.2306 4.79999H96.3506L92.4866 10.416L96.8306 16.8H93.5186L90.2546 11.832H89.0546V16.8H86.2706V4.79999ZM101.631 17.04C100.207 17.04 99.1506 16.72 98.4626 16.08C97.7746 15.44 97.4306 14.552 97.4306 13.416C97.4306 12.824 97.5266 12.288 97.7186 11.808C97.9106 11.328 98.2226 10.92 98.6546 10.584C99.0866 10.248 99.6466 9.99199 100.335 9.81599C101.023 9.62399 101.855 9.52799 102.831 9.52799H105.207V8.87999C105.207 8.25599 105.023 7.77599 104.655 7.43999C104.287 7.08799 103.719 6.91199 102.951 6.91199C102.183 6.91199 101.631 7.05599 101.295 7.34399C100.959 7.61599 100.759 7.96799 100.695 8.39999H97.9106C97.9426 7.85599 98.0706 7.35199 98.2946 6.88799C98.5186 6.40799 98.8386 5.99999 99.2546 5.66399C99.6706 5.31199 100.183 5.03999 100.791 4.84799C101.415 4.65599 102.135 4.55999 102.951 4.55999C104.663 4.55999 105.927 4.95199 106.743 5.73599C107.575 6.51999 107.991 7.64799 107.991 9.11999V16.8H105.831L105.567 15.24H105.519C105.055 15.816 104.487 16.264 103.815 16.584C103.143 16.888 102.415 17.04 101.631 17.04ZM102.111 14.688C102.559 14.688 102.967 14.616 103.335 14.472C103.719 14.328 104.047 14.136 104.319 13.896C104.591 13.64 104.807 13.344 104.967 13.008C105.127 12.656 105.207 12.28 105.207 11.88V11.592H102.951C101.991 11.592 101.319 11.752 100.935 12.072C100.551 12.376 100.359 12.792 100.359 13.32C100.359 13.72 100.495 14.048 100.767 14.304C101.055 14.56 101.503 14.688 102.111 14.688Z" fill="black"/>
</svg>
