<svg width="24" height="24" viewBox="0 0 24 24" fill="none" xmlns="http://www.w3.org/2000/svg">
<mask id="mask0_286_580" style="mask-type:luminance" maskUnits="userSpaceOnUse" x="0" y="0" width="24" height="24">
<path d="M24 0H0V24H24V0Z" fill="white"/>
</mask>
<g mask="url(#mask0_286_580)">
<mask id="mask1_286_580" style="mask-type:luminance" maskUnits="userSpaceOnUse" x="0" y="0" width="24" height="24">
<path d="M24 0H0V24H24V0Z" fill="white"/>
</mask>
<g mask="url(#mask1_286_580)">
<path d="M9.489 0.00299996L10.218 0H13.782L14.512 0.00299996L15.426 0.0130005L15.8589 0.0199995L16.277 0.0310005L16.68 0.045L17.0679 0.0610005L17.442 0.0820005L17.802 0.106999L18.147 0.136999L18.48 0.169999C20.22 0.366 21.413 0.786 22.313 1.686C23.2131 2.586 23.6331 3.77801 23.829 5.519L23.863 5.852L23.892 6.198L23.9169 6.558L23.937 6.93101L23.962 7.51899L23.9739 7.92902L23.9871 8.57297L23.996 9.48797L24 10.468L23.999 13.781L23.996 14.511L23.986 15.425L23.979 15.858L23.968 16.2761L23.954 16.679L23.9379 17.067L23.9169 17.441L23.892 17.801L23.862 18.146L23.829 18.479C23.6331 20.219 23.2131 21.4121 22.313 22.3121C21.413 23.2121 20.2209 23.6321 18.48 23.828L18.147 23.862L17.801 23.891L17.441 23.916L17.0679 23.936L16.4801 23.961L16.0701 23.973L15.426 23.9861L14.511 23.9951L13.531 23.999L10.218 23.9981L9.48802 23.9951L8.574 23.985L8.14103 23.978L7.72298 23.967L7.32 23.9531L6.93201 23.937L6.558 23.916L6.198 23.891L5.853 23.861L5.52 23.828C3.78 23.6321 2.58701 23.2121 1.68701 22.3121C0.786998 21.4121 0.366999 20.22 0.171 18.479L0.137 18.146L0.108 17.8001L0.0830002 17.4401L0.063 17.067L0.0380001 16.479L0.026 16.0691L0.013 15.425L0.004 14.51L0 13.53L0.000999997 10.217L0.004 9.48699L0.014 8.57297L0.021 8.13999L0.0319999 7.72202L0.0459999 7.319L0.0620001 6.93101L0.0830002 6.557L0.108 6.197L0.138 5.852L0.171 5.519C0.366999 3.779 0.786998 2.586 1.68701 1.686C2.58701 0.786 3.77901 0.366 5.52 0.169999L5.853 0.136001L6.199 0.106999L6.55899 0.0820005L6.93201 0.0619995L7.52003 0.0370005L7.92998 0.0250005L8.574 0.012L9.489 0.00299996ZM6.79 7.299H4.05C4.17999 13.539 7.29999 17.289 12.77 17.289H13.08V13.719C15.09 13.919 16.6099 15.389 17.22 17.289H20.0601C19.2799 14.4491 17.23 12.879 15.9501 12.279C17.23 11.539 19.0299 9.73899 19.4599 7.299H16.8801C16.32 9.27902 14.66 11.079 13.08 11.249V7.299H10.5V14.219C8.90002 13.819 6.88 11.879 6.79 7.299Z" fill="black"/>
</g>
</g>
</svg>
